<svg width="28" height="28" viewBox="0 0 28 28" fill="none" xmlns="http://www.w3.org/2000/svg">
<path d="M8.62623 17.9596C8.2357 18.3501 8.2357 18.9832 8.62623 19.3738C9.01675 19.7643 9.64992 19.7643 10.0404 19.3738L8.62623 17.9596ZM17.6667 12.8333C17.6667 14.214 16.5474 15.3333 15.1667 15.3333V17.3333C17.6519 17.3333 19.6667 15.3186 19.6667 12.8333H17.6667ZM12.6667 12.8333C12.6667 11.4526 13.786 10.3333 15.1667 10.3333V8.33333C12.6814 8.33333 10.6667 10.3481 10.6667 12.8333H12.6667ZM15.1667 10.3333C16.5474 10.3333 17.6667 11.4526 17.6667 12.8333H19.6667C19.6667 10.3481 17.6519 8.33333 15.1667 8.33333V10.3333ZM11.9847 14.6011L8.62623 17.9596L10.0404 19.3738L13.3989 16.0153L11.9847 14.6011ZM15.1667 15.3333C14.476 15.3333 13.8524 15.0546 13.3989 14.6011L11.9847 16.0153C12.7979 16.8286 13.9243 17.3333 15.1667 17.3333V15.3333ZM13.3989 14.6011C12.9454 14.1476 12.6667 13.524 12.6667 12.8333H10.6667C10.6667 14.0757 11.1714 15.2021 11.9847 16.0153L13.3989 14.6011ZM23.5 14C23.5 19.2467 19.2467 23.5 14 23.5V25.5C20.3513 25.5 25.5 20.3513 25.5 14H23.5ZM14 23.5C8.75329 23.5 4.5 19.2467 4.5 14H2.5C2.5 20.3513 7.64873 25.5 14 25.5V23.5ZM4.5 14C4.5 8.75329 8.75329 4.5 14 4.5V2.5C7.64873 2.5 2.5 7.64873 2.5 14H4.5ZM14 4.5C19.2467 4.5 23.5 8.75329 23.5 14H25.5C25.5 7.64873 20.3513 2.5 14 2.5V4.5Z" fill="#ADB8CC"/>
</svg>
