<svg width="28" height="28" viewBox="0 0 28 28" fill="none" xmlns="http://www.w3.org/2000/svg">
<path d="M18.6667 14C18.6667 16.5773 16.5773 18.6667 14 18.6667C11.4227 18.6667 9.33333 16.5773 9.33333 14C9.33333 11.4227 11.4227 9.33333 14 9.33333C16.5773 9.33333 18.6667 11.4227 18.6667 14Z" fill="#101725"/>
<path d="M14 3.5V4.66667M14 23.3333V24.5M24.5 14H23.3333M4.66667 14H3.5M21.4246 21.4246L20.5997 20.5997M7.40034 7.40034L6.57538 6.57538M21.4247 6.57544L20.5997 7.4004M7.4004 20.5997L6.57544 21.4247M18.6667 14C18.6667 16.5773 16.5773 18.6667 14 18.6667C11.4227 18.6667 9.33333 16.5773 9.33333 14C9.33333 11.4227 11.4227 9.33333 14 9.33333C16.5773 9.33333 18.6667 11.4227 18.6667 14Z" stroke="#101725" stroke-width="2" stroke-linecap="round" stroke-linejoin="round"/>
</svg>
