<svg width="24" height="24" viewBox="0 0 24 24" fill="none" xmlns="http://www.w3.org/2000/svg">
<path d="M16.6667 12C16.6667 14.5773 14.5773 16.6667 12 16.6667C9.42267 16.6667 7.33333 14.5773 7.33333 12C7.33333 9.42267 9.42267 7.33333 12 7.33333C14.5773 7.33333 16.6667 9.42267 16.6667 12Z" fill="#101725"/>
<path d="M12 1.5V2.66667M12 21.3333V22.5M22.5 12H21.3333M2.66667 12H1.5M19.4246 19.4246L18.5997 18.5997M5.40034 5.40034L4.57538 4.57538M19.4247 4.57544L18.5997 5.4004M5.4004 18.5997L4.57544 19.4247M16.6667 12C16.6667 14.5773 14.5773 16.6667 12 16.6667C9.42267 16.6667 7.33333 14.5773 7.33333 12C7.33333 9.42267 9.42267 7.33333 12 7.33333C14.5773 7.33333 16.6667 9.42267 16.6667 12Z" stroke="#101725" stroke-width="2" stroke-linecap="round" stroke-linejoin="round"/>
</svg>
